<svg xmlns="http://www.w3.org/2000/svg" xmlns:xlink="http://www.w3.org/1999/xlink" width="2000" zoomAndPan="magnify" viewBox="0 0 1500 1499.999933" height="2000" preserveAspectRatio="xMidYMid meet" version="1.0"><defs><filter x="0%" y="0%" width="100%" height="100%" id="0a6b2447b5"><feColorMatrix values="0 0 0 0 1 0 0 0 0 1 0 0 0 0 1 0 0 0 1 0" color-interpolation-filters="sRGB"/></filter><mask id="a90d076635"><g filter="url(#0a6b2447b5)"><rect x="-150" width="1800" fill="#000000" y="-149.999993" height="1799.99992" fill-opacity="0.28"/></g></mask><clipPath id="ebff3bc294"><path d="M 0.800781 1.019531 L 720.050781 1.019531 L 720.050781 434 L 0.800781 434 Z M 0.800781 1.019531 " clip-rule="nonzero"/></clipPath><clipPath id="984243cf5d"><path d="M 167 623 L 554 623 L 554 754.769531 L 167 754.769531 Z M 167 623 " clip-rule="nonzero"/></clipPath><clipPath id="d9762af9ad"><rect x="0" width="721" y="0" height="756"/></clipPath><clipPath id="5f73a93551"><path d="M 473 1025 L 1027 1025 L 1027 1050 L 473 1050 Z M 473 1025 " clip-rule="nonzero"/></clipPath><clipPath id="0d4ba6c734"><path d="M 473.164062 1037.585938 C 473.164062 1035.414062 473.726562 1033.304688 474.851562 1031.417969 C 475.898438 1029.519531 477.445312 1027.984375 479.335938 1026.859375 C 481.226562 1025.808594 483.402344 1025.242188 485.578125 1025.242188 L 1014.402344 1025.242188 C 1016.574219 1025.242188 1018.671875 1025.808594 1020.574219 1026.929688 C 1022.464844 1027.984375 1024.003906 1029.523438 1025.125 1031.417969 C 1026.179688 1033.304688 1026.808594 1035.480469 1026.808594 1037.652344 L 1026.808594 1037.585938 C 1026.808594 1039.761719 1026.25 1041.859375 1025.125 1043.757812 C 1024.078125 1045.648438 1022.53125 1047.191406 1020.640625 1048.308594 C 1018.746094 1049.363281 1016.574219 1049.996094 1014.46875 1049.996094 L 485.503906 1049.996094 C 483.332031 1049.996094 481.226562 1049.433594 479.335938 1048.308594 C 477.441406 1047.265625 475.898438 1045.714844 474.777344 1043.824219 C 473.726562 1041.933594 473.164062 1039.761719 473.164062 1037.652344 Z M 473.164062 1037.585938 " clip-rule="nonzero"/></clipPath><clipPath id="601025e3aa"><path d="M 839 656 L 952 656 L 952 765 L 839 765 Z M 839 656 " clip-rule="nonzero"/></clipPath><clipPath id="6d5825c4b7"><path d="M 944.273438 701.570312 C 941.390625 695.890625 938.519531 690.214844 935.695312 684.515625 C 933.1875 679.484375 930.855469 674.367188 927.769531 669.664062 C 924.90625 665.304688 921.371094 660.953125 916.632812 658.542969 C 911.042969 655.703125 904.710938 656.789062 899.878906 660.648438 C 888.160156 670.039062 888.75 686.105469 892.820312 699.101562 C 894.871094 705.644531 898.0625 711.695312 900.914062 717.902344 C 901.636719 719.464844 903.71875 722.457031 902.792969 724.304688 C 885.238281 716.867188 869.488281 705.644531 852.179688 697.664062 C 848.335938 695.890625 845.3125 695.523438 841.195312 697.921875 C 839.417969 698.957031 839.765625 698.914062 840.457031 700.8125 C 841.796875 704.363281 842.476562 708.128906 842.574219 711.921875 C 842.617188 713.609375 842.492188 715.066406 841.453125 716.457031 C 841.214844 716.789062 840.316406 717.574219 840.308594 717.960938 C 840.308594 718.328125 841.1875 719.183594 841.417969 719.5 C 842.222656 720.828125 843.351562 722.074219 844.34375 723.277344 C 854.125 735.140625 866.5 745.203125 879.835938 752.820312 C 886.09375 756.394531 892.679688 759.402344 899.554688 761.589844 C 902.667969 762.570312 905.828125 763.390625 909.035156 764.007812 C 910.597656 764.316406 915.105469 762.390625 915.105469 762.390625 C 915.105469 762.390625 928.722656 763.546875 934.378906 760.710938 C 939.171875 758.296875 942.613281 753.992188 944.867188 749.207031 C 945.507812 747.847656 946.929688 743.742188 946.929688 743.742188 C 946.929688 743.742188 951.214844 735.902344 951.507812 732.445312 C 951.882812 727.949219 951.882812 723.351562 950.851562 718.949219 C 949.425781 712.917969 946.921875 707.144531 944.273438 701.570312 C 938.808594 690.800781 949.285156 712.128906 944.273438 701.570312 Z M 944.273438 701.570312 " clip-rule="nonzero"/></clipPath><clipPath id="297b983d86"><path d="M 772 680 L 825 680 L 825 758 L 772 758 Z M 772 680 " clip-rule="nonzero"/></clipPath><clipPath id="0cf8c34ce7"><path d="M 823.703125 721.746094 C 816.15625 716.226562 808.984375 708.460938 808.808594 698.578125 C 808.730469 694.203125 810.035156 690.03125 811.886719 686.128906 C 812.445312 684.960938 811.574219 682.28125 811.40625 681.027344 C 811.273438 680 808.671875 680.132812 808.671875 680.132812 C 808.671875 680.132812 807.96875 683.078125 807.609375 684.386719 C 806.964844 686.726562 806.375 689.074219 805.804688 691.433594 C 804.210938 698.085938 802.835938 704.773438 801.46875 711.472656 C 799.625 711.007812 795.949219 710.101562 795.476562 708.210938 C 795.003906 706.941406 793.992188 706.167969 792.414062 704.582031 C 792.6875 706.648438 793.148438 708.785156 793.148438 710.882812 C 793.117188 712.207031 793.308594 714.703125 792.566406 715.71875 C 791.539062 717.121094 789.707031 717.679688 788.070312 717.941406 C 783.058594 718.773438 772.796875 715.746094 772.796875 715.746094 L 774.53125 718.785156 C 774.53125 718.785156 775.304688 719.28125 775.371094 720.414062 C 775.671875 725.679688 777.105469 730.816406 779.039062 735.695312 C 782.46875 744.3125 787.960938 753.308594 797.394531 756.101562 C 800.046875 756.886719 803.515625 757.621094 806.148438 756.394531 C 808.523438 755.289062 810.273438 753.058594 811.667969 750.914062 C 816.929688 742.871094 819.597656 732.96875 822.035156 723.777344 C 823.410156 723.734375 824.839844 723.085938 824.839844 723.085938 C 824.839844 723.085938 824.273438 722.171875 823.703125 721.746094 Z M 823.703125 721.746094 " clip-rule="nonzero"/></clipPath><clipPath id="16ff8a2f1e"><path d="M 869 1014 L 921 1014 L 921 1039 L 869 1039 Z M 869 1014 " clip-rule="nonzero"/></clipPath><clipPath id="f688762f92"><path d="M 920.066406 1021.574219 C 918.339844 1020.230469 916.285156 1019.273438 914.171875 1018.714844 C 914.234375 1018.433594 912.941406 1015.8125 912.941406 1015.8125 L 901.632812 1014.957031 L 898.09375 1017.464844 C 898.09375 1017.464844 868.0625 1019.675781 869.167969 1037.136719 C 869.289062 1038.304688 869.113281 1038.578125 870.078125 1038.578125 C 870.949219 1038.578125 871.816406 1038.578125 872.675781 1038.578125 C 875.71875 1038.578125 878.773438 1038.578125 881.816406 1038.578125 C 894.578125 1038.578125 907.335938 1038.578125 920.097656 1038.578125 L 920.109375 1038.578125 C 920.09375 1032.910156 920.082031 1027.238281 920.066406 1021.574219 Z M 920.066406 1021.574219 " clip-rule="nonzero"/></clipPath><clipPath id="06a1ddbbee"><path d="M 832 572 L 981 572 L 981 744 L 832 744 Z M 832 572 " clip-rule="nonzero"/></clipPath><clipPath id="a826ae7180"><path d="M 967.222656 730.816406 C 976.625 720.621094 980.28125 706.710938 980.800781 693.140625 C 981.210938 681.238281 974.960938 671.8125 964.140625 667.007812 C 942.777344 657.902344 926.082031 641.421875 917.761719 619.636719 C 914.21875 610.363281 913.324219 600.46875 909.601562 591.296875 C 907.46875 586.039062 904.027344 581.359375 899.289062 578.191406 C 893.777344 574.507812 887.316406 573.429688 880.820312 572.871094 C 872.933594 572.179688 864.980469 572.570312 857.207031 574.082031 C 850.410156 575.398438 841.628906 576.996094 836.71875 582.292969 C 832.582031 586.753906 829.96875 593.894531 835.453125 598.339844 C 836.675781 599.328125 838.066406 600.09375 839.5 600.714844 C 841.484375 601.585938 848.515625 605.035156 852.257812 604.953125 C 860.964844 604.785156 869.300781 601.808594 876.445312 596.878906 C 877.648438 602.414062 878.84375 607.945312 880.050781 613.484375 C 882.472656 611.570312 884.902344 609.640625 887.335938 607.726562 C 888.324219 606.945312 889.304688 606.167969 890.289062 605.390625 C 890.890625 604.917969 893.691406 605.671875 894.484375 605.757812 C 896.359375 605.949219 894.789062 610.816406 894.207031 611.871094 C 892.523438 614.914062 889.296875 616.902344 887.082031 619.554688 C 883.714844 623.59375 880.023438 629.871094 880.023438 635.339844 C 880.023438 638.296875 880.023438 641.25 880.023438 644.207031 C 880.023438 646.070312 880.023438 647.933594 880.023438 649.789062 C 880.023438 650.214844 879.71875 652.257812 880.023438 652.589844 C 880.566406 653.175781 885.429688 653.050781 886.039062 653.113281 C 890.164062 653.53125 894.273438 654.136719 898.339844 654.9375 C 900.058594 655.273438 902.152344 655.433594 903.660156 656.332031 C 904.328125 656.726562 904.96875 657.144531 905.628906 657.554688 C 906.554688 657.265625 911.828125 658.550781 913.121094 659.566406 C 914.15625 660.375 915.433594 660.753906 916.570312 661.457031 C 923.117188 665.464844 927.308594 673.117188 930.539062 679.820312 C 933.570312 686.078125 936.703125 692.277344 939.851562 698.46875 C 943.648438 705.984375 947.703125 714 948.921875 722.445312 C 949.921875 729.371094 948.871094 737.101562 946.921875 743.746094 C 954.398438 741.101562 961.667969 736.847656 967.222656 730.816406 C 967.761719 730.226562 966.929688 731.125 967.222656 730.816406 Z M 967.222656 730.816406 " clip-rule="nonzero"/></clipPath><clipPath id="b6ff116bec"><path d="M 790 1015 L 843 1015 L 843 1039 L 790 1039 Z M 790 1015 " clip-rule="nonzero"/></clipPath><clipPath id="603c6614f8"><path d="M 842.195312 1018.246094 L 828.113281 1015.347656 C 828.113281 1015.347656 824.386719 1016.960938 824.195312 1017.214844 C 820.1875 1017.269531 816.15625 1017.757812 812.234375 1018.625 C 805.882812 1020.039062 798.964844 1022.617188 794.394531 1027.453125 C 792.601562 1029.351562 791.273438 1031.699219 790.972656 1034.3125 C 790.878906 1035.089844 790.488281 1038.578125 791.550781 1038.578125 C 805.066406 1038.578125 818.582031 1038.578125 832.09375 1038.578125 C 833.054688 1038.578125 841.898438 1038.976562 841.898438 1038.230469 C 841.898438 1035.046875 841.898438 1031.878906 841.898438 1028.691406 C 841.898438 1027.140625 841.898438 1025.609375 841.898438 1024.058594 C 841.90625 1022.492188 842.195312 1018.246094 842.195312 1018.246094 Z M 842.195312 1018.246094 " clip-rule="nonzero"/></clipPath><clipPath id="86c37cd248"><path d="M 808 609 L 864 609 L 864 687 L 808 687 Z M 808 609 " clip-rule="nonzero"/></clipPath><clipPath id="91427fc560"><path d="M 843.3125 624.113281 C 841.972656 619.34375 842.070312 609.0625 842.070312 609.0625 L 839.761719 617.539062 C 839.761719 617.539062 839.15625 619.761719 838.480469 620.921875 C 837.257812 623.019531 835.941406 625.054688 834.515625 627.019531 C 830.890625 632.023438 826.425781 636.285156 822.125 640.695312 C 816.507812 646.449219 812.054688 651.890625 809.980469 659.824219 C 807.792969 668.210938 808.082031 677.027344 809.363281 685.453125 C 810.003906 684.128906 811.765625 686.390625 811.765625 686.390625 C 811.765625 686.390625 825.46875 665.519531 828.082031 662.425781 C 830.089844 660.042969 831.96875 659.339844 834.9375 658.335938 C 840.957031 656.300781 863.164062 652.964844 863.164062 652.261719 C 863.164062 650.269531 863.289062 635.414062 863.078125 635.394531 C 861.910156 635.269531 845.441406 631.691406 843.3125 624.113281 Z M 843.3125 624.113281 " clip-rule="nonzero"/></clipPath><clipPath id="beeb5a906d"><path d="M 806 650 L 916 650 L 916 785 L 806 785 Z M 806 650 " clip-rule="nonzero"/></clipPath><clipPath id="1547a02e7c"><path d="M 914.539062 764.886719 C 914.726562 764.054688 914.894531 763.222656 915.097656 762.390625 C 901.429688 760.746094 888.492188 755.378906 876.902344 748.089844 C 864.351562 740.195312 852.167969 730.113281 843.496094 717.992188 C 840.742188 721.128906 835.855469 720.882812 832.089844 720.617188 C 827.519531 720.289062 822.945312 719.292969 818.851562 717.175781 C 814.914062 715.140625 811.339844 712.023438 809.128906 708.144531 C 806.75 703.972656 806.8125 699.238281 807.457031 694.597656 C 808.554688 686.609375 813.578125 678.574219 822.78125 680.386719 C 832.480469 682.292969 839.5625 691.074219 842.867188 699.917969 C 846.097656 698.046875 848.644531 698.808594 851.65625 700.226562 C 856.15625 702.351562 860.535156 704.738281 864.910156 707.125 C 876.222656 713.28125 887.375 719.847656 899.015625 725.386719 C 900.269531 725.976562 901.535156 726.566406 902.828125 727.0625 C 903.222656 727.207031 903.625 727.359375 904.03125 727.464844 C 904.402344 727.566406 905.308594 724.964844 905.414062 724.480469 C 906.152344 721.035156 903.480469 717.304688 902.089844 714.335938 C 896.089844 701.507812 888.394531 685.460938 895.003906 671.382812 C 898.269531 664.402344 905.375 657.039062 913.835938 660.109375 C 911.972656 658.601562 910.023438 657.207031 908.003906 655.925781 C 905.382812 654.261719 903.148438 653.304688 900.117188 652.675781 C 894.332031 651.472656 888.472656 650.648438 882.589844 650.207031 C 882.589844 652.839844 882.605469 655.402344 881.296875 657.785156 C 879.351562 661.339844 875.621094 663.496094 871.597656 663.496094 C 867.820312 663.496094 864.355469 661.621094 862.292969 658.445312 C 860.65625 655.921875 860.609375 653.160156 860.609375 650.269531 C 852.800781 650.988281 845.078125 652.503906 837.578125 654.789062 C 834.820312 655.636719 831.476562 656.3125 829.085938 657.980469 C 827.066406 659.371094 813.574219 678.113281 811.585938 681.371094 C 808.511719 686.425781 806.25 692.164062 806.226562 698.160156 C 806.179688 710.902344 816.589844 720.550781 826.472656 726.796875 C 828.429688 728.039062 831.257812 728.820312 832.027344 731.128906 C 832.5 732.519531 832.683594 734.003906 832.769531 735.460938 C 833.03125 739.859375 832.476562 744.304688 831.8125 748.632812 C 830.800781 755.191406 829.347656 761.6875 827.761719 768.121094 C 826.488281 773.261719 824.054688 776.773438 824.054688 782.015625 L 832.265625 784.113281 C 832.265625 784.113281 862.726562 784.113281 877.960938 784.113281 C 888.980469 784.113281 905.902344 784.113281 905.902344 784.113281 L 909.53125 781.640625 C 909.53125 781.640625 910.828125 781.832031 911.144531 781.621094 C 911.726562 781.222656 911.945312 777.421875 912.097656 776.636719 C 912.300781 775.589844 914.132812 764.886719 914.539062 764.886719 Z M 914.539062 764.886719 " clip-rule="nonzero"/></clipPath><clipPath id="1abb94738c"><path d="M 824 781 L 927 781 L 927 1024 L 824 1024 Z M 824 781 " clip-rule="nonzero"/></clipPath><clipPath id="a98ba8e9d8"><path d="M 917.03125 906.753906 C 913.828125 895.363281 910.460938 883.894531 908.359375 872.238281 C 906.597656 862.386719 909.25 852.175781 911.664062 842.644531 C 915.207031 829.007812 916.339844 815.558594 915.417969 801.507812 C 915.058594 795.941406 913.980469 790.300781 911.535156 785.246094 C 910.628906 783.371094 910.3125 781.558594 908.171875 781.558594 C 881.53125 781.558594 854.882812 781.558594 828.230469 781.558594 C 826.976562 781.558594 825.71875 781.558594 824.453125 781.558594 C 823.855469 781.558594 824.125 783.769531 824.125 784.222656 C 824.125 785.785156 824.125 787.363281 824.125 788.929688 C 824.125 797.96875 824.128906 807.003906 824.128906 816.039062 C 824.140625 847.210938 824.152344 878.378906 824.164062 909.554688 C 824.167969 938.214844 824.179688 966.863281 824.195312 995.515625 C 824.199219 1002.777344 824.199219 1010.035156 824.199219 1017.296875 C 827.875 1017.222656 831.59375 1017.550781 835.148438 1018.515625 C 837.035156 1019.023438 838.859375 1019.71875 840.53125 1020.734375 C 841.90625 1021.574219 841.816406 1021.796875 841.816406 1023.289062 C 849.566406 1014.054688 851.195312 999.679688 852.171875 987.996094 C 852.746094 981.164062 853.199219 974.15625 852.816406 967.3125 C 852.46875 961.074219 851.425781 954.855469 850.433594 948.695312 C 849.558594 943.289062 848.5 937.777344 848.300781 932.289062 C 848.03125 924.800781 849.1875 917.101562 851 909.851562 C 852.75 902.847656 855.726562 896.253906 857.472656 889.246094 C 859.183594 882.382812 860.117188 875.328125 860.539062 868.269531 C 861.234375 856.601562 859.246094 845.082031 859.199219 833.425781 C 869.519531 882.078125 879.539062 930.792969 889.878906 979.4375 C 891.769531 988.328125 893.675781 997.214844 895.601562 1006.09375 C 896.429688 1009.914062 897.292969 1013.734375 898.105469 1017.535156 C 903.429688 1017.050781 908.921875 1017.195312 914.074219 1018.761719 C 916.214844 1010.183594 918.867188 1001.394531 921.429688 992.800781 C 924.617188 982.09375 926.484375 971.128906 926.484375 959.925781 C 926.488281 941.949219 921.917969 923.90625 917.03125 906.753906 C 910.839844 884.742188 923.304688 928.792969 917.03125 906.753906 Z M 917.03125 906.753906 " clip-rule="nonzero"/></clipPath><clipPath id="712ea7a75d"><path d="M 673 531 L 768 531 L 768 538 L 673 538 Z M 673 531 " clip-rule="nonzero"/></clipPath><clipPath id="2e385d2ebb"><path d="M 767.921875 531.507812 C 736.347656 531.507812 704.71875 531.507812 673.03125 531.507812 C 673.03125 533.402344 673.03125 535.179688 673.03125 537.183594 C 704.71875 537.183594 736.347656 537.183594 767.921875 537.183594 C 767.921875 535.179688 767.921875 533.402344 767.921875 531.507812 Z M 767.921875 531.507812 " clip-rule="nonzero"/></clipPath><clipPath id="be0270a448"><path d="M 673 519 L 768 519 L 768 526 L 673 526 Z M 673 519 " clip-rule="nonzero"/></clipPath><clipPath id="be1a717d59"><path d="M 767.921875 519.992188 C 736.347656 519.992188 704.71875 519.992188 673.03125 519.992188 C 673.03125 521.882812 673.03125 523.660156 673.03125 525.664062 C 704.71875 525.664062 736.347656 525.664062 767.921875 525.664062 C 767.921875 523.660156 767.921875 521.882812 767.921875 519.992188 Z M 767.921875 519.992188 " clip-rule="nonzero"/></clipPath><clipPath id="0c01d1c08f"><path d="M 673 543 L 768 543 L 768 549 L 673 549 Z M 673 543 " clip-rule="nonzero"/></clipPath><clipPath id="58848d0e6f"><path d="M 767.921875 543.027344 C 736.347656 543.027344 704.71875 543.027344 673.03125 543.027344 C 673.03125 544.921875 673.03125 546.695312 673.03125 548.699219 C 704.71875 548.699219 736.347656 548.699219 767.921875 548.699219 C 767.921875 546.695312 767.921875 544.917969 767.921875 543.027344 Z M 767.921875 543.027344 " clip-rule="nonzero"/></clipPath><clipPath id="eee984ea36"><path d="M 605 505 L 635 505 L 635 521 L 605 521 Z M 605 505 " clip-rule="nonzero"/></clipPath><clipPath id="e4579aab01"><path d="M 629.023438 511.898438 C 628.335938 511.898438 627.648438 511.953125 627.078125 512.242188 C 626.675781 510.636719 625.988281 509.203125 625.070312 507.941406 C 623.410156 505.9375 621.464844 505.074219 619.28125 505.074219 C 616.933594 505.074219 614.984375 505.933594 613.382812 507.941406 C 612.003906 509.660156 611.261719 511.78125 611.03125 513.957031 C 610.855469 513.957031 610.683594 513.957031 610.574219 513.957031 C 609.3125 513.957031 608.28125 514.472656 607.363281 515.503906 C 606.445312 516.648438 605.929688 517.910156 605.929688 519.574219 C 605.929688 519.742188 605.929688 519.917969 606.042969 520.148438 C 615.5 520.148438 624.839844 520.148438 634.40625 520.148438 C 634.464844 519.632812 634.464844 519.058594 634.464844 518.601562 C 634.464844 516.765625 634.003906 515.160156 632.976562 513.785156 C 631.777344 512.527344 630.515625 511.898438 629.023438 511.898438 Z M 629.023438 511.898438 " clip-rule="nonzero"/></clipPath><clipPath id="9ae0187367"><path d="M 804 517 L 828 517 L 828 533 L 804 533 Z M 804 517 " clip-rule="nonzero"/></clipPath><clipPath id="83ba295bbc"><path d="M 827.171875 517.699219 C 819.78125 517.699219 812.273438 517.699219 804.765625 517.699219 C 804.765625 522.398438 804.765625 527.210938 804.765625 532.027344 C 812.269531 532.027344 819.78125 532.027344 827.171875 532.027344 C 827.171875 527.210938 827.171875 522.398438 827.171875 517.699219 Z M 827.171875 517.699219 " clip-rule="nonzero"/></clipPath><clipPath id="ead782fc50"><path d="M 704 450 L 748 450 L 748 494 L 704 494 Z M 704 450 " clip-rule="nonzero"/></clipPath><clipPath id="ea6dda903a"><path d="M 714 473 L 738 473 L 738 484 L 714 484 Z M 714 473 " clip-rule="nonzero"/></clipPath><clipPath id="e883526ab4"><path d="M 728.15625 473.867188 C 727.46875 474.265625 726.722656 474.324219 726.035156 474.324219 C 725.460938 474.324219 724.660156 474.265625 723.914062 473.867188 C 723.515625 473.691406 722.824219 473.40625 721.851562 473.121094 C 721.507812 473.175781 720.820312 473.464844 719.960938 473.867188 C 719.273438 474.265625 718.585938 474.609375 718.238281 474.898438 C 717.726562 475.125 717.265625 475.582031 716.75 476.269531 C 716.695312 476.617188 716.410156 477.191406 716.003906 478.046875 C 715.714844 478.679688 715.429688 479.308594 715.027344 479.996094 C 714.628906 480.972656 714.457031 481.714844 714.339844 482.289062 C 714.339844 482.75 714.632812 483.148438 715.316406 483.4375 C 715.605469 483.4375 716.066406 483.550781 716.75 483.550781 C 718.582031 483.4375 721.851562 483.4375 726.722656 483.550781 C 730.847656 483.550781 734.113281 483.4375 736.464844 483.4375 C 737.035156 483.4375 737.378906 483.148438 737.609375 482.75 C 737.664062 482.289062 737.664062 481.828125 737.492188 481.316406 C 737.03125 479.996094 736.515625 479.023438 736.230469 478.453125 C 735.65625 477.417969 735.257812 476.445312 734.796875 475.699219 C 734.339844 475.128906 733.535156 474.609375 732.679688 474.152344 C 732.105469 473.867188 731.304688 473.464844 730.269531 473.121094 C 729.300781 473.410156 728.613281 473.691406 728.15625 473.867188 Z M 728.15625 473.867188 " clip-rule="nonzero"/></clipPath><clipPath id="91af7c5765"><path d="M 721 460 L 732 460 L 732 473 L 721 473 Z M 721 460 " clip-rule="nonzero"/></clipPath><clipPath id="2a304cd7d0"><path d="M 721.277344 467.332031 C 721.503906 469.054688 722.253906 470.371094 723.453125 471.289062 C 724.203125 472.035156 725.175781 472.433594 726.261719 472.320312 C 727.410156 472.320312 728.328125 471.859375 729.183594 471.113281 C 730.101562 470.140625 730.671875 469.109375 730.960938 467.734375 C 731.136719 466.417969 731.136719 465.042969 730.671875 463.664062 C 730.503906 463.09375 730.097656 462.40625 729.582031 461.890625 C 729.066406 461.371094 728.554688 461.03125 727.75 460.746094 C 726.722656 460.574219 725.632812 460.574219 724.660156 460.746094 C 723.453125 461.089844 722.59375 461.773438 722.078125 462.691406 C 721.394531 464.125 721.105469 465.730469 721.277344 467.332031 Z M 721.277344 467.332031 " clip-rule="nonzero"/></clipPath><clipPath id="f9ecb04675"><path d="M 552 778 L 655 778 L 655 1023 L 552 1023 Z M 552 778 " clip-rule="nonzero"/></clipPath><clipPath id="0c31cfd211"><path d="M 636.902344 788.003906 C 636.835938 786.179688 636.773438 784.355469 636.71875 782.535156 C 636.6875 781.515625 636.648438 780.488281 636.609375 779.472656 C 636.574219 778.269531 635.050781 778.8125 634.019531 778.8125 C 629.394531 778.8125 624.769531 778.8125 620.148438 778.8125 C 607.691406 778.8125 595.234375 778.8125 582.773438 778.8125 C 581.660156 778.8125 580.273438 778.28125 580.171875 779.550781 C 580.140625 779.9375 580.105469 780.347656 580.074219 780.734375 C 579.890625 783.058594 579.707031 785.375 579.523438 787.695312 C 578.910156 795.53125 578.289062 803.371094 577.667969 811.199219 C 577.113281 818.246094 576.558594 825.292969 576.007812 832.332031 C 571.386719 831.308594 565.332031 832.636719 565.332031 832.636719 C 565.332031 832.636719 566.179688 836.644531 566.65625 838.640625 C 568.320312 845.585938 570.140625 852.472656 571.027344 859.582031 C 572.027344 867.621094 570.332031 874.878906 568.429688 882.679688 C 562.089844 908.6875 552.09375 934.8125 552.832031 961.96875 C 553.183594 975.078125 556.539062 987.257812 560.167969 999.761719 C 561.578125 1004.613281 562.960938 1009.476562 564.273438 1014.359375 C 564.53125 1015.351562 564.796875 1016.332031 565.058594 1017.3125 C 565.351562 1017.902344 568.628906 1019.910156 573.273438 1019.996094 C 575.257812 1020.027344 581.980469 1016.4375 581.148438 1016.375 C 592.78125 962.652344 603.945312 908.800781 615.144531 854.972656 C 616.664062 847.660156 618.183594 840.347656 619.738281 833.039062 C 619.714844 838.410156 619.339844 843.804688 618.945312 849.171875 C 618.375 856.941406 618.101562 864.460938 618.824219 872.238281 C 619.453125 879.042969 620.605469 885.820312 622.550781 892.367188 C 624.703125 899.59375 627.582031 906.441406 629.023438 913.886719 C 630.257812 920.242188 631.117188 926.992188 630.539062 933.472656 C 629.957031 939.914062 628.761719 946.308594 627.792969 952.691406 C 625.792969 965.800781 625.78125 978.738281 627.300781 991.9375 C 628.257812 1000.183594 629.761719 1008.75 633.371094 1016.304688 C 634.1875 1018.019531 635.128906 1019.667969 636.265625 1021.199219 C 637.183594 1022.445312 644.917969 1022.15625 645.875 1021.742188 C 650.78125 1019.640625 654.761719 1015.828125 654.761719 1015.765625 C 654.761719 1014.902344 654.761719 1014.042969 654.757812 1013.179688 C 654.757812 1009.308594 654.757812 1005.425781 654.757812 1001.546875 C 654.75 987.804688 654.742188 974.054688 654.738281 960.3125 C 654.71875 930.070312 654.707031 899.8125 654.683594 869.578125 C 654.683594 864.601562 654.679688 859.636719 654.679688 854.667969 C 654.679688 847.714844 654.679688 840.75 654.679688 833.800781 C 654.679688 831.09375 654.902344 824.921875 654.902344 824.921875 C 654.902344 824.921875 644.527344 824.507812 638.171875 825.84375 C 637.746094 813.226562 637.324219 800.621094 636.902344 788.003906 Z M 636.902344 788.003906 " clip-rule="nonzero"/></clipPath><clipPath id="521f6a0a12"><path d="M 636 1015 L 688 1015 L 688 1038 L 636 1038 Z M 636 1015 " clip-rule="nonzero"/></clipPath><clipPath id="c3dd432a61"><path d="M 637.121094 1020.507812 C 637.121094 1023.164062 637.121094 1025.824219 637.121094 1028.480469 C 637.121094 1030.410156 637.121094 1032.328125 637.121094 1034.246094 C 637.121094 1034.691406 636.800781 1036.992188 637.121094 1037.316406 C 637.519531 1037.714844 640.363281 1037.316406 640.898438 1037.316406 C 644.039062 1037.316406 647.195312 1037.316406 650.339844 1037.316406 C 658.476562 1037.316406 666.621094 1037.316406 674.761719 1037.316406 C 677.84375 1037.316406 680.941406 1037.316406 684.027344 1037.316406 C 685.101562 1037.316406 687.464844 1037.898438 687.636719 1036.65625 C 689.054688 1026.367188 678.214844 1020.867188 669.871094 1018.429688 C 660.257812 1015.625 645.652344 1013.835938 637.121094 1020.507812 Z M 637.121094 1020.507812 " clip-rule="nonzero"/></clipPath><clipPath id="9e8450c6e3"><path d="M 559 1016 L 611 1016 L 611 1038 L 559 1038 Z M 559 1016 " clip-rule="nonzero"/></clipPath><clipPath id="04412bbdc7"><path d="M 565.144531 1017.636719 C 563.964844 1017.953125 559.222656 1019.335938 559.222656 1020.808594 C 559.222656 1022.214844 559.222656 1023.617188 559.222656 1025.015625 C 559.222656 1028.730469 559.222656 1032.445312 559.222656 1036.160156 C 559.222656 1037.722656 559.523438 1037.316406 561.039062 1037.316406 C 563.6875 1037.316406 566.339844 1037.316406 568.980469 1037.316406 C 582.429688 1037.316406 595.871094 1037.316406 609.3125 1037.316406 C 611.015625 1037.316406 609.253906 1030.59375 608.757812 1029.628906 C 606.519531 1025.125 601.714844 1022.285156 597.273438 1020.347656 C 587.683594 1016.160156 575.253906 1014.550781 565.144531 1017.636719 C 564.636719 1017.777344 569.652344 1016.269531 565.144531 1017.636719 Z M 565.144531 1017.636719 " clip-rule="nonzero"/></clipPath><clipPath id="865f8d46ff"><path d="M 580 722 L 637 722 L 637 782 L 580 782 Z M 580 722 " clip-rule="nonzero"/></clipPath><clipPath id="6b59b27faa"><path d="M 636.589844 778.8125 L 634.796875 723.070312 C 634.796875 723.070312 632.261719 723.410156 632.21875 722.175781 C 619.660156 737.1875 602.746094 749.894531 584.492188 757.039062 C 584.132812 757.527344 581.617188 761.09375 581.617188 761.09375 L 580.222656 778.816406 C 580.222656 778.816406 582.644531 780.511719 582.582031 781.359375 C 599.761719 781.359375 616.949219 781.359375 634.128906 781.359375 C 634.101562 780.511719 636.589844 778.8125 636.589844 778.8125 Z M 636.589844 778.8125 " clip-rule="nonzero"/></clipPath><clipPath id="5a485cfdc8"><path d="M 584 657 L 634 657 L 634 722 L 584 722 Z M 584 657 " clip-rule="nonzero"/></clipPath><clipPath id="553731dadf"><path d="M 587.292969 721.851562 C 587.292969 721.851562 606.980469 711.042969 616.871094 705.714844 C 620.207031 703.921875 623.558594 702.136719 626.976562 700.5 C 628.324219 699.859375 631.449219 698.875 631.449219 698.875 L 633.925781 696.59375 C 633.925781 696.59375 633.089844 670.359375 632.667969 657.25 C 629.207031 660.746094 625.726562 664.230469 622.269531 667.722656 C 619.96875 664.167969 617.65625 660.613281 615.363281 657.050781 C 614.230469 658.066406 613.101562 659.28125 611.769531 660.050781 C 610.355469 660.855469 608.296875 660.660156 607.800781 662.222656 C 607.015625 664.71875 606.242188 667.195312 605.453125 669.691406 C 600.203125 665.933594 594.941406 662.179688 589.691406 658.417969 C 589.390625 662.296875 589.082031 666.171875 588.78125 670.046875 C 588.621094 672.164062 588.542969 676.609375 588.542969 676.609375 L 586.441406 700.058594 C 586.441406 700.058594 586.054688 705.058594 585.851562 707.5625 C 585.523438 711.789062 584.871094 720.238281 584.871094 720.238281 Z M 587.292969 721.851562 " clip-rule="nonzero"/></clipPath><clipPath id="00f8ae9cc3"><path d="M 570 575 L 647 575 L 647 640 L 570 640 Z M 570 575 " clip-rule="nonzero"/></clipPath><clipPath id="9d9d82322f"><path d="M 589.644531 624.933594 C 586.238281 621.796875 582.523438 617.789062 580.789062 613.425781 C 579.828125 611.011719 580.023438 608.441406 581.363281 606.207031 C 583.621094 604.828125 586.257812 604.667969 588.746094 605.4375 C 590.863281 606.324219 592.039062 608.390625 593.734375 609.835938 C 594.445312 610.449219 595.222656 611.011719 596.078125 611.421875 C 596.871094 611.820312 597.03125 611.363281 597.675781 610.835938 C 598.683594 610.007812 598.207031 605.214844 598.40625 603.753906 C 598.792969 600.890625 599.410156 598.039062 600.199219 595.265625 C 605.917969 599.425781 612.660156 603.363281 619.65625 604.804688 C 623.210938 605.53125 626.765625 605.25 630.335938 604.863281 C 633.789062 604.488281 637.738281 604.316406 640.847656 602.628906 C 645.347656 600.1875 647.929688 594.136719 645.503906 589.417969 C 642.875 584.324219 636.902344 580.9375 631.695312 579.023438 C 625.628906 576.796875 619.105469 576 612.6875 575.742188 C 605.726562 575.457031 598.636719 575.707031 591.894531 577.632812 C 580.734375 580.792969 569.121094 590.183594 570.777344 602.972656 C 571.734375 610.332031 575.097656 618.003906 579.082031 624.21875 C 583.179688 630.636719 589.089844 635.648438 595.875 639.046875 C 594.96875 633.652344 593.761719 628.808594 589.644531 624.933594 C 586.414062 621.953125 592.527344 627.640625 589.644531 624.933594 Z M 589.644531 624.933594 " clip-rule="nonzero"/></clipPath><clipPath id="be552996b4"><path d="M 659 636 L 753 636 L 753 715 L 659 715 Z M 659 636 " clip-rule="nonzero"/></clipPath><clipPath id="6372c412a0"><path d="M 752.457031 662.535156 C 742.03125 658.09375 731.609375 653.652344 721.179688 649.214844 C 714.058594 646.175781 706.933594 643.140625 699.8125 640.113281 C 699.261719 639.875 690.539062 635.84375 690.371094 636.097656 C 681.890625 648.84375 673.460938 661.636719 664.929688 674.347656 C 663.070312 675.402344 659.644531 677.816406 659.644531 677.816406 C 659.644531 677.816406 660.34375 679.382812 660.917969 680.488281 C 672.863281 682.941406 674.464844 702.234375 668.296875 710.335938 C 668.996094 711.304688 672.542969 713.632812 672.542969 713.632812 L 677.496094 712.164062 C 677.496094 712.164062 685.253906 713.734375 686.355469 713.945312 C 686.851562 714.046875 689.578125 714.964844 689.964844 714.628906 C 694.566406 710.792969 699.164062 706.957031 703.761719 703.125 C 712.222656 696.074219 720.550781 689.21875 728.988281 682.160156 C 733.015625 678.789062 737.042969 675.421875 741.074219 672.058594 C 744.785156 668.957031 749.199219 665.980469 752.457031 662.535156 Z M 752.457031 662.535156 " clip-rule="nonzero"/></clipPath><clipPath id="2a10e6a86a"><path d="M 612 647 L 633 647 L 633 672 L 612 672 Z M 612 647 " clip-rule="nonzero"/></clipPath><clipPath id="a889abd415"><path d="M 632.429688 657.492188 L 629.785156 655.820312 C 629.785156 655.820312 623.820312 650.316406 620.824219 647.578125 C 619.421875 649.3125 618.027344 651.035156 616.632812 652.765625 C 615.546875 654.085938 614.472656 655.417969 613.394531 656.746094 C 612.542969 657.800781 612.707031 657.691406 613.488281 658.878906 C 616.292969 663.164062 619.0625 667.46875 621.84375 671.765625 C 624.5625 669.027344 627.292969 666.28125 630.011719 663.53125 C 630.921875 662.625 632.429688 657.492188 632.429688 657.492188 Z M 632.429688 657.492188 " clip-rule="nonzero"/></clipPath><clipPath id="d4137026d2"><path d="M 590 647 L 612 647 L 612 674 L 590 674 Z M 590 647 " clip-rule="nonzero"/></clipPath><clipPath id="b3b36b44c7"><path d="M 595.753906 647.710938 C 594.71875 648.820312 593.871094 649.613281 592.917969 650.644531 C 591.105469 651.695312 590.148438 652.367188 590.050781 653.675781 C 589.773438 657.230469 591.515625 662.316406 591.871094 663.109375 C 592.296875 664.054688 603.09375 671.128906 606.828125 673.804688 C 607.140625 672.804688 612.472656 657.96875 611.78125 657.546875 C 606.453125 654.277344 601.203125 650.773438 595.753906 647.710938 Z M 595.753906 647.710938 " clip-rule="nonzero"/></clipPath></defs><g mask="url(#a90d076635)"><g transform="matrix(1, 0, 0, 1, 386, 249)"><g clip-path="url(#d9762af9ad)"><g clip-path="url(#ebff3bc294)"><path fill="#086fb6" d="M 720.082031 325.382812 C 720.082031 275.121094 684.382812 230.828125 635.199219 220.03125 C 630.679688 219.042969 627.457031 215.035156 627.457031 210.398438 L 627.457031 209.660156 C 627.457031 94.890625 534.023438 1.519531 419.195312 1.519531 C 342.960938 1.519531 272.863281 43.117188 236.292969 110.058594 C 233.890625 114.449219 228.597656 116.355469 223.941406 114.480469 C 213.8125 110.40625 203.09375 108.332031 192.058594 108.332031 C 150.125 108.332031 114.671875 138.28125 107.765625 179.550781 C 107.09375 183.558594 104 186.765625 100.023438 187.570312 C 42.484375 199.386719 0.75 250.5 0.75 309.125 C 0.75 377.546875 56.429688 433.199219 124.886719 433.199219 L 147.511719 433.199219 L 147.511719 364.84375 C 147.511719 329.34375 219.175781 307.679688 303.152344 300.957031 L 303.152344 201.820312 C 303.152344 196.363281 307.574219 191.957031 313.019531 191.957031 C 318.460938 191.957031 322.882812 196.363281 322.882812 201.820312 L 322.882812 299.675781 C 335.300781 299.035156 347.863281 298.722656 360.410156 298.722656 C 372.957031 298.722656 385.535156 299.050781 397.949219 299.675781 L 397.949219 209.988281 L 379.402344 228.527344 C 375.554688 232.371094 369.304688 232.371094 365.457031 228.527344 C 361.609375 224.679688 361.609375 218.433594 365.457031 214.574219 L 400.84375 179.203125 C 400.84375 179.203125 400.925781 179.136719 400.960938 179.089844 C 401.15625 178.90625 401.335938 178.726562 401.550781 178.546875 C 401.632812 178.480469 401.714844 178.429688 401.796875 178.367188 C 401.960938 178.234375 402.144531 178.085938 402.324219 177.972656 C 402.390625 177.921875 402.472656 177.890625 402.539062 177.839844 C 402.734375 177.707031 402.949219 177.578125 403.164062 177.476562 C 403.210938 177.445312 403.261719 177.429688 403.3125 177.394531 C 403.542969 177.28125 403.789062 177.148438 404.035156 177.050781 C 404.066406 177.050781 404.101562 177.035156 404.132812 177.019531 C 404.394531 176.902344 404.660156 176.804688 404.9375 176.722656 C 404.972656 176.722656 405.003906 176.707031 405.039062 176.6875 C 405.316406 176.605469 405.597656 176.542969 405.875 176.476562 C 405.941406 176.460938 406.023438 176.441406 406.105469 176.441406 C 406.335938 176.410156 406.582031 176.359375 406.828125 176.328125 C 407.160156 176.292969 407.488281 176.277344 407.816406 176.277344 C 408.144531 176.277344 408.472656 176.277344 408.804688 176.328125 C 409.050781 176.359375 409.28125 176.394531 409.527344 176.441406 C 409.609375 176.441406 409.675781 176.460938 409.742188 176.476562 C 410.019531 176.523438 410.300781 176.605469 410.578125 176.6875 C 410.613281 176.6875 410.644531 176.6875 410.679688 176.722656 C 410.957031 176.804688 411.21875 176.902344 411.484375 177.019531 C 411.515625 177.019531 411.550781 177.035156 411.582031 177.050781 C 411.828125 177.148438 412.074219 177.265625 412.304688 177.394531 C 412.355469 177.429688 412.40625 177.445312 412.453125 177.476562 C 412.667969 177.59375 412.882812 177.722656 413.078125 177.839844 C 413.144531 177.890625 413.226562 177.921875 413.292969 177.972656 C 413.472656 178.085938 413.652344 178.234375 413.820312 178.367188 C 413.902344 178.429688 413.984375 178.480469 414.066406 178.546875 C 414.261719 178.710938 414.460938 178.890625 414.65625 179.089844 C 414.691406 179.121094 414.738281 179.171875 414.773438 179.203125 L 450.160156 214.574219 C 454.007812 218.417969 454.007812 224.664062 450.160156 228.527344 C 448.234375 230.449219 445.703125 231.417969 443.1875 231.417969 C 440.671875 231.417969 438.140625 230.464844 436.199219 228.527344 L 417.667969 209.988281 L 417.667969 300.957031 C 501.644531 307.664062 573.304688 329.324219 573.304688 364.84375 L 573.304688 433.199219 L 612.195312 433.199219 C 671.671875 433.199219 720.066406 384.828125 720.066406 325.363281 Z M 720.082031 325.382812 " fill-opacity="1" fill-rule="evenodd"/></g><path fill="#0b4168" d="M 501.25 334.617188 C 477.570312 328.058594 448.941406 323.359375 417.699219 320.78125 L 417.699219 360.914062 C 417.699219 366.355469 413.277344 370.777344 407.832031 370.777344 C 402.390625 370.777344 397.96875 366.355469 397.96875 360.914062 L 397.96875 319.449219 C 385.714844 318.808594 373.167969 318.460938 360.425781 318.460938 C 347.683594 318.460938 335.152344 318.808594 322.902344 319.449219 L 322.902344 352.746094 L 341.433594 334.207031 C 345.296875 330.363281 351.546875 330.363281 355.394531 334.207031 C 359.242188 338.054688 359.242188 344.296875 355.394531 348.160156 L 320.007812 383.515625 C 319.777344 383.746094 319.546875 383.957031 319.300781 384.171875 C 319.234375 384.222656 319.152344 384.269531 319.085938 384.320312 C 318.90625 384.46875 318.722656 384.613281 318.527344 384.746094 C 318.445312 384.796875 318.378906 384.828125 318.3125 384.878906 C 318.097656 385.007812 317.902344 385.140625 317.6875 385.238281 C 317.640625 385.273438 317.574219 385.289062 317.523438 385.320312 C 317.292969 385.4375 317.0625 385.550781 316.816406 385.652344 C 316.785156 385.652344 316.734375 385.683594 316.703125 385.683594 C 316.4375 385.796875 316.175781 385.878906 315.914062 385.964844 C 315.863281 385.964844 315.832031 385.996094 315.78125 385.996094 C 315.519531 386.0625 315.253906 386.144531 314.976562 386.191406 C 314.894531 386.210938 314.8125 386.226562 314.730469 386.226562 C 314.480469 386.257812 314.25 386.308594 314.019531 386.339844 C 313.691406 386.375 313.363281 386.390625 313.035156 386.390625 C 312.707031 386.390625 312.378906 386.390625 312.046875 386.339844 C 311.800781 386.308594 311.570312 386.273438 311.339844 386.226562 C 311.257812 386.226562 311.175781 386.210938 311.09375 386.191406 C 310.816406 386.144531 310.550781 386.0625 310.289062 385.996094 C 310.238281 385.996094 310.207031 385.980469 310.15625 385.964844 C 309.894531 385.878906 309.632812 385.78125 309.367188 385.683594 C 309.335938 385.683594 309.285156 385.652344 309.253906 385.652344 C 309.007812 385.550781 308.777344 385.4375 308.546875 385.320312 C 308.480469 385.289062 308.429688 385.273438 308.382812 385.238281 C 308.167969 385.125 307.953125 384.992188 307.757812 384.878906 C 307.691406 384.828125 307.609375 384.796875 307.542969 384.746094 C 307.34375 384.617188 307.164062 384.46875 306.984375 384.320312 C 306.917969 384.269531 306.835938 384.222656 306.769531 384.171875 C 306.523438 383.972656 306.277344 383.742188 306.046875 383.515625 L 270.675781 348.160156 C 266.828125 344.316406 266.828125 338.070312 270.675781 334.207031 C 274.523438 330.363281 280.773438 330.363281 284.621094 334.207031 L 303.167969 352.746094 L 303.167969 320.78125 C 271.925781 323.359375 243.296875 328.058594 219.617188 334.617188 C 178.292969 346.074219 167.261719 359.023438 167.261719 364.875 C 167.261719 370.726562 178.292969 383.660156 219.617188 395.132812 C 257.207031 405.554688 307.214844 411.289062 360.425781 411.289062 C 413.636719 411.289062 463.660156 405.554688 501.25 395.132812 C 542.574219 383.679688 553.605469 370.726562 553.605469 364.875 C 553.605469 359.023438 542.574219 346.074219 501.25 334.617188 Z M 501.25 334.617188 " fill-opacity="1" fill-rule="evenodd"/><path fill="#0b4168" d="M 553.589844 394.425781 C 517.839844 418.539062 438.78125 430.996094 360.410156 430.996094 C 282.039062 430.996094 202.992188 418.539062 167.246094 394.425781 L 167.246094 479.203125 C 167.246094 487.074219 183.390625 499.484375 219.484375 509.476562 C 256.996094 519.878906 307.050781 525.597656 360.410156 525.597656 C 413.769531 525.597656 463.839844 519.878906 501.347656 509.476562 C 537.425781 499.484375 553.589844 487.058594 553.589844 479.203125 Z M 553.589844 394.425781 " fill-opacity="1" fill-rule="evenodd"/><path fill="#0b4168" d="M 553.589844 508.753906 C 517.839844 532.847656 438.78125 545.320312 360.410156 545.320312 C 282.039062 545.320312 202.992188 532.863281 167.246094 508.753906 L 167.246094 593.527344 C 167.246094 601.398438 183.390625 613.808594 219.484375 623.800781 C 256.996094 634.207031 307.050781 639.925781 360.410156 639.925781 C 413.769531 639.925781 463.839844 634.207031 501.347656 623.800781 C 537.425781 613.808594 553.589844 601.398438 553.589844 593.527344 Z M 553.589844 508.753906 " fill-opacity="1" fill-rule="evenodd"/><g clip-path="url(#984243cf5d)"><path fill="#0b4168" d="M 553.589844 623.09375 C 517.839844 647.1875 438.78125 659.648438 360.410156 659.648438 C 282.039062 659.648438 202.992188 647.1875 167.246094 623.09375 L 167.246094 707.851562 C 167.246094 715.726562 183.390625 728.132812 219.484375 738.144531 C 256.996094 748.53125 307.050781 754.265625 360.410156 754.265625 C 413.769531 754.265625 463.839844 748.53125 501.347656 738.144531 C 537.425781 728.132812 553.589844 715.726562 553.589844 707.851562 Z M 553.589844 623.09375 " fill-opacity="1" fill-rule="evenodd"/></g></g></g></g><g clip-path="url(#5f73a93551)"><g clip-path="url(#0d4ba6c734)"><path fill="#efebeb" d="M 473.164062 1025.242188 L 473.164062 1049.996094 L 1026.808594 1049.996094 L 1026.808594 1025.242188 Z M 473.164062 1025.242188 " fill-opacity="1" fill-rule="nonzero"/></g></g><path fill="#ffd21f" d="M 750.769531 978.015625 L 738.558594 978.015625 C 736.800781 978.015625 735.09375 978.492188 733.589844 979.402344 C 732.082031 980.253906 730.828125 981.507812 729.976562 983.011719 C 729.070312 984.519531 728.621094 986.226562 728.621094 987.976562 L 728.621094 1027.675781 C 728.621094 1029.433594 729.070312 1031.140625 729.976562 1032.648438 C 730.832031 1034.148438 732.085938 1035.410156 733.589844 1036.261719 C 735.09375 1037.160156 736.804688 1037.617188 738.558594 1037.617188 L 750.820312 1037.617188 L 756.101562 1005.714844 Z M 750.769531 978.015625 " fill-opacity="1" fill-rule="nonzero"/><path fill="#ffa51f" d="M 800.1875 987.933594 C 800.1875 986.175781 799.734375 984.46875 798.832031 982.964844 C 797.976562 981.457031 796.722656 980.203125 795.214844 979.351562 C 793.714844 978.449219 792.003906 978.015625 790.25 978.015625 L 750.550781 978.015625 C 748.796875 978.015625 747.089844 978.492188 745.582031 979.402344 C 744.078125 980.253906 742.820312 981.507812 741.972656 983.011719 C 741.070312 984.519531 740.617188 986.226562 740.617188 987.976562 L 740.617188 1027.675781 C 740.617188 1029.433594 741.070312 1031.140625 741.972656 1032.648438 C 742.824219 1034.148438 744.078125 1035.410156 745.582031 1036.261719 C 747.09375 1037.160156 748.796875 1037.617188 750.550781 1037.617188 L 790.296875 1037.617188 C 792.058594 1037.617188 793.761719 1037.160156 795.265625 1036.261719 C 796.773438 1035.40625 798.027344 1034.148438 798.878906 1032.648438 C 799.78125 1031.140625 800.234375 1029.433594 800.234375 1027.675781 Z M 800.1875 987.933594 " fill-opacity="1" fill-rule="nonzero"/><path fill="#ffd21f" d="M 683.269531 978.015625 L 671.054688 978.015625 C 669.300781 978.015625 667.589844 978.492188 666.089844 979.402344 C 664.578125 980.253906 663.324219 981.507812 662.476562 983.011719 C 661.570312 984.519531 661.121094 986.226562 661.121094 987.976562 L 661.121094 1027.675781 C 661.121094 1029.433594 661.570312 1031.140625 662.476562 1032.648438 C 663.328125 1034.148438 664.582031 1035.410156 666.089844 1036.261719 C 667.59375 1037.160156 669.300781 1037.617188 671.054688 1037.617188 L 683.320312 1037.617188 L 688.601562 1005.714844 Z M 683.269531 978.015625 " fill-opacity="1" fill-rule="nonzero"/><path fill="#ffa51f" d="M 732.683594 987.933594 C 732.683594 986.175781 732.234375 984.46875 731.332031 982.964844 C 730.476562 981.457031 729.222656 980.203125 727.71875 979.351562 C 726.210938 978.449219 724.503906 978.015625 722.75 978.015625 L 683.050781 978.015625 C 681.292969 978.015625 679.589844 978.492188 678.082031 979.402344 C 676.582031 980.253906 675.320312 981.507812 674.46875 983.011719 C 673.566406 984.519531 673.117188 986.226562 673.117188 987.976562 L 673.117188 1027.675781 C 673.117188 1029.433594 673.566406 1031.140625 674.46875 1032.648438 C 675.324219 1034.148438 676.582031 1035.410156 678.082031 1036.261719 C 679.59375 1037.160156 681.296875 1037.617188 683.050781 1037.617188 L 722.800781 1037.617188 C 724.558594 1037.617188 726.265625 1037.160156 727.765625 1036.261719 C 729.273438 1035.40625 730.527344 1034.148438 731.378906 1032.648438 C 732.28125 1031.140625 732.738281 1029.433594 732.738281 1027.675781 Z M 732.683594 987.933594 " fill-opacity="1" fill-rule="nonzero"/><path fill="#5ce1e6" d="M 718.539062 917.804688 L 706.328125 917.804688 C 704.570312 917.804688 702.859375 918.277344 701.355469 919.183594 C 699.847656 920.035156 698.59375 921.289062 697.746094 922.796875 C 696.839844 924.300781 696.390625 926.003906 696.390625 927.761719 L 696.390625 967.460938 C 696.390625 969.21875 696.839844 970.921875 697.746094 972.429688 C 698.597656 973.933594 699.851562 975.191406 701.355469 976.042969 C 702.863281 976.945312 704.570312 977.398438 706.328125 977.398438 L 718.589844 977.398438 L 723.871094 945.503906 Z M 718.539062 917.804688 " fill-opacity="1" fill-rule="nonzero"/><path fill="#0097b2" d="M 767.953125 927.71875 C 767.953125 925.960938 767.5 924.253906 766.597656 922.753906 C 765.742188 921.242188 764.488281 919.992188 762.984375 919.136719 C 761.480469 918.230469 759.773438 917.804688 758.019531 917.804688 L 718.316406 917.804688 C 716.5625 917.804688 714.855469 918.28125 713.351562 919.183594 C 711.84375 920.039062 710.589844 921.292969 709.738281 922.796875 C 708.835938 924.300781 708.386719 926.007812 708.386719 927.765625 L 708.386719 967.460938 C 708.386719 969.21875 708.835938 970.925781 709.738281 972.429688 C 710.59375 973.9375 711.84375 975.191406 713.351562 976.042969 C 714.859375 976.949219 716.566406 977.402344 718.316406 977.402344 L 758.066406 977.402344 C 759.824219 977.402344 761.53125 976.949219 763.035156 976.042969 C 764.542969 975.191406 765.796875 973.9375 766.648438 972.429688 C 767.546875 970.921875 768.003906 969.214844 768.003906 967.460938 Z M 767.953125 927.71875 " fill-opacity="1" fill-rule="nonzero"/><g clip-path="url(#601025e3aa)"><g clip-path="url(#6d5825c4b7)"><path fill="#d7cece" d="M 839.417969 655.703125 L 839.417969 764.316406 L 951.882812 764.316406 L 951.882812 655.703125 Z M 839.417969 655.703125 " fill-opacity="1" fill-rule="nonzero"/></g></g><g clip-path="url(#297b983d86)"><g clip-path="url(#0cf8c34ce7)"><path fill="#d7cece" d="M 772.796875 680 L 772.796875 757.621094 L 824.839844 757.621094 L 824.839844 680 Z M 772.796875 680 " fill-opacity="1" fill-rule="nonzero"/></g></g><g clip-path="url(#16ff8a2f1e)"><g clip-path="url(#f688762f92)"><path fill="#514242" d="M 868.0625 1014.957031 L 868.0625 1038.578125 L 920.109375 1038.578125 L 920.109375 1014.957031 Z M 868.0625 1014.957031 " fill-opacity="1" fill-rule="nonzero"/></g></g><g clip-path="url(#06a1ddbbee)"><g clip-path="url(#a826ae7180)"><path fill="#514242" d="M 829.96875 572.179688 L 829.96875 743.746094 L 981.210938 743.746094 L 981.210938 572.179688 Z M 829.96875 572.179688 " fill-opacity="1" fill-rule="nonzero"/></g></g><g clip-path="url(#b6ff116bec)"><g clip-path="url(#603c6614f8)"><path fill="#514242" d="M 790.488281 1015.347656 L 790.488281 1038.976562 L 842.195312 1038.976562 L 842.195312 1015.347656 Z M 790.488281 1015.347656 " fill-opacity="1" fill-rule="nonzero"/></g></g><g clip-path="url(#86c37cd248)"><g clip-path="url(#91427fc560)"><path fill="#514242" d="M 807.792969 609.0625 L 807.792969 686.390625 L 863.289062 686.390625 L 863.289062 609.0625 Z M 807.792969 609.0625 " fill-opacity="1" fill-rule="nonzero"/></g></g><path fill="#c19696" d="M 795.3125 716.011719 C 795.710938 711.238281 795.851562 707.410156 793.117188 703.183594 C 790.15625 698.613281 785.855469 694.683594 780.664062 692.855469 C 775.691406 691.105469 770.285156 691.28125 765.183594 692.363281 C 761.082031 693.234375 759.027344 697.738281 757.304688 701.214844 C 755.996094 703.871094 754.851562 706.609375 753.78125 709.367188 C 753.78125 710.597656 754.789062 711.574219 755.691406 712.261719 C 759.832031 715.402344 765.777344 716.871094 770.75 717.910156 C 776.953125 719.203125 791.613281 724.621094 795.3125 716.011719 C 795.578125 712.859375 793.957031 719.164062 795.3125 716.011719 Z M 795.3125 716.011719 " fill-opacity="1" fill-rule="nonzero"/><path fill="#c19696" d="M 897.023438 603.453125 C 896.507812 602.507812 895.113281 601.339844 893.539062 601.179688 C 892.59375 601.078125 890.015625 602.367188 889.222656 603 C 886.714844 604.976562 884.199219 606.964844 881.691406 608.949219 C 880.492188 603.457031 879.304688 597.964844 878.113281 592.472656 C 867.304688 601.152344 853.929688 604.363281 840.421875 601.035156 C 839.628906 608.046875 839.089844 615.496094 840.324219 622.496094 C 841.136719 627.082031 843.308594 631.359375 847.226562 634.03125 C 849.125 635.324219 851.28125 636.195312 853.5 636.738281 C 854.246094 636.925781 860.613281 637.707031 860.613281 637.800781 C 860.613281 641.199219 860.613281 644.617188 860.613281 648.023438 C 860.613281 648.925781 860.628906 650.273438 860.628906 650.273438 L 858.117188 653.171875 C 858.117188 653.171875 858.308594 655.238281 858.574219 656.25 C 860.289062 662.683594 866.667969 666.667969 873.179688 665.980469 C 884.140625 666.058594 885.105469 653.015625 885.105469 653.015625 L 882.597656 650.203125 C 882.597656 650.203125 882.597656 647.867188 882.597656 646.710938 C 882.597656 640.507812 882.046875 634.636719 884.460938 628.777344 C 886.4375 623.980469 889.671875 620.277344 893.460938 616.820312 C 897.335938 613.273438 898.773438 608.464844 897.023438 603.453125 Z M 897.023438 603.453125 " fill-opacity="1" fill-rule="nonzero"/><path fill="#c19696" d="M 842.855469 699.917969 C 842.855469 699.917969 843.371094 696.867188 844.199219 696.644531 C 840.351562 688.175781 833.652344 680.507812 824.347656 678.121094 C 822.210938 677.582031 820.003906 677.378906 817.828125 677.773438 C 816.632812 677.988281 816.113281 679.21875 815.449219 680.171875 C 814.59375 681.414062 813.738281 682.03125 812.644531 683.027344 C 809.800781 685.621094 808.371094 689.359375 807.683594 693.070312 C 806.890625 697.292969 806.503906 702.078125 808.144531 706.148438 C 810.007812 710.765625 812.535156 713.308594 816.253906 716.265625 C 817.960938 717.988281 826.5 722.472656 828.492188 722.773438 C 833.164062 723.472656 841.917969 720.191406 841.417969 719.503906 C 847.929688 716.136719 842.855469 699.917969 842.855469 699.917969 Z M 842.855469 699.917969 " fill-opacity="1" fill-rule="nonzero"/><g clip-path="url(#beeb5a906d)"><g clip-path="url(#1547a02e7c)"><path fill="#b6a6a6" d="M 806.179688 650.207031 L 806.179688 784.113281 L 915.097656 784.113281 L 915.097656 650.207031 Z M 806.179688 650.207031 " fill-opacity="1" fill-rule="nonzero"/></g></g><g clip-path="url(#1abb94738c)"><g clip-path="url(#a98ba8e9d8)"><path fill="#745e5f" d="M 823.855469 781.558594 L 823.855469 1023.289062 L 926.488281 1023.289062 L 926.488281 781.558594 Z M 823.855469 781.558594 " fill-opacity="1" fill-rule="nonzero"/></g></g><path fill="#5ce1e6" d="M 807.105469 628.863281 L 807.105469 708.457031 L 828.835938 708.457031 L 828.835938 708.375 L 828.867188 708.375 C 836.097656 708.230469 839.710938 704.457031 839.710938 697.089844 L 839.710938 640.238281 C 839.710938 632.875 836.117188 629.105469 828.925781 628.945312 L 828.894531 628.945312 L 828.894531 628.859375 L 807.105469 628.859375 Z M 807.105469 628.863281 " fill-opacity="1" fill-rule="nonzero"/><path fill="#0097b2" d="M 744.386719 640.238281 L 744.386719 697.09375 C 744.386719 704.632812 748.207031 708.457031 755.757812 708.457031 L 813.015625 708.457031 L 813.015625 708.375 L 813.054688 708.375 C 820.28125 708.234375 823.898438 704.460938 823.898438 697.09375 L 823.898438 640.238281 C 823.898438 632.875 820.296875 629.109375 813.117188 628.945312 L 813.085938 628.945312 L 813.085938 628.863281 L 755.761719 628.863281 C 748.210938 628.863281 744.390625 632.699219 744.386719 640.238281 Z M 744.386719 640.238281 " fill-opacity="1" fill-rule="nonzero"/><path fill="#ffa51f" d="M 776.917969 506.46875 C 740.246094 506.46875 703.746094 506.46875 667.128906 506.46875 C 661.800781 506.46875 658.996094 509.164062 658.996094 514.378906 C 658.996094 526.929688 658.996094 539.476562 658.996094 551.910156 C 658.996094 557.238281 661.800781 560.046875 667.128906 560.046875 C 673.894531 560.046875 680.65625 560.046875 687.300781 560.046875 C 685.753906 566.691406 684.207031 573.398438 682.65625 580.042969 C 690.964844 573.398438 699.390625 566.691406 707.699219 560.046875 C 730.679688 560.046875 753.769531 560.046875 776.917969 560.046875 C 782.191406 560.046875 784.882812 557.238281 784.882812 551.910156 C 784.882812 539.476562 784.882812 526.929688 784.882812 514.378906 C 784.882812 509.050781 782.191406 506.46875 776.917969 506.46875 Z M 776.917969 506.46875 " fill-opacity="1" fill-rule="nonzero"/><g clip-path="url(#712ea7a75d)"><g clip-path="url(#2e385d2ebb)"><path fill="#efebeb" d="M 673.03125 531.507812 L 673.03125 537.183594 L 767.921875 537.183594 L 767.921875 531.507812 Z M 673.03125 531.507812 " fill-opacity="1" fill-rule="nonzero"/></g></g><g clip-path="url(#be0270a448)"><g clip-path="url(#be1a717d59)"><path fill="#efebeb" d="M 673.03125 519.992188 L 673.03125 525.664062 L 767.921875 525.664062 L 767.921875 519.992188 Z M 673.03125 519.992188 " fill-opacity="1" fill-rule="nonzero"/></g></g><g clip-path="url(#0c01d1c08f)"><g clip-path="url(#58848d0e6f)"><path fill="#efebeb" d="M 673.03125 543.027344 L 673.03125 548.699219 L 767.921875 548.699219 L 767.921875 543.027344 Z M 673.03125 543.027344 " fill-opacity="1" fill-rule="nonzero"/></g></g><path fill="#ffd21f" d="M 598.3125 515.066406 C 598.3125 521.023438 600.546875 526.125 604.898438 530.476562 C 609.140625 534.835938 614.355469 536.953125 620.316406 536.953125 C 626.386719 536.953125 631.605469 534.835938 635.957031 530.476562 C 640.3125 526.125 642.320312 521.023438 642.320312 515.066406 C 642.320312 508.933594 640.3125 503.71875 635.957031 499.308594 C 631.605469 495.070312 626.386719 493.0625 620.316406 493.0625 C 614.355469 493.0625 609.140625 495.070312 604.898438 499.308594 C 600.546875 503.71875 598.3125 508.933594 598.3125 515.066406 Z M 598.3125 515.066406 " fill-opacity="1" fill-rule="nonzero"/><g clip-path="url(#eee984ea36)"><g clip-path="url(#e4579aab01)"><path fill="#efebeb" d="M 605.929688 505.074219 L 605.929688 520.148438 L 634.464844 520.148438 L 634.464844 505.074219 Z M 605.929688 505.074219 " fill-opacity="1" fill-rule="nonzero"/></g></g><path fill="#0097b2" d="M 793.878906 524.804688 C 793.878906 530.765625 796.117188 535.976562 800.46875 540.21875 C 804.824219 544.574219 809.921875 546.808594 815.882812 546.808594 C 821.957031 546.808594 827.171875 544.574219 831.527344 540.21875 C 835.882812 535.976562 837.886719 530.765625 837.886719 524.804688 C 837.886719 518.730469 835.882812 513.519531 831.527344 509.160156 C 827.171875 504.808594 821.957031 502.800781 815.882812 502.800781 C 809.921875 502.800781 804.824219 504.808594 800.46875 509.160156 C 796.117188 513.519531 793.878906 518.730469 793.878906 524.804688 Z M 793.878906 524.804688 " fill-opacity="1" fill-rule="nonzero"/><g clip-path="url(#9ae0187367)"><g clip-path="url(#83ba295bbc)"><path fill="#efebeb" d="M 804.765625 517.699219 L 804.765625 532.027344 L 827.171875 532.027344 L 827.171875 517.699219 Z M 804.765625 517.699219 " fill-opacity="1" fill-rule="nonzero"/></g></g><path fill="#0097b2" d="M 819.550781 520.679688 C 819.550781 523.546875 819.550781 526.296875 819.550781 529.273438 C 816.398438 527.84375 813.363281 526.410156 810.097656 524.976562 C 813.363281 523.546875 816.398438 522.113281 819.550781 520.679688 Z M 819.550781 520.679688 " fill-opacity="1" fill-rule="nonzero"/><g clip-path="url(#ead782fc50)"><path fill="#5ce1e6" d="M 704.089844 471.976562 C 704.089844 477.9375 706.210938 483.148438 710.679688 487.390625 C 714.921875 491.746094 720.132812 493.980469 726.09375 493.980469 C 732.167969 493.980469 737.378906 491.746094 741.734375 487.390625 C 745.976562 483.148438 747.984375 477.9375 747.984375 471.976562 C 747.984375 465.902344 745.980469 460.683594 741.734375 456.332031 C 737.378906 451.976562 732.167969 449.96875 726.09375 449.96875 C 720.191406 449.96875 714.921875 451.976562 710.5625 456.332031 C 706.210938 460.683594 704.089844 465.902344 704.089844 471.976562 Z M 704.089844 471.976562 " fill-opacity="1" fill-rule="nonzero"/></g><g clip-path="url(#ea6dda903a)"><g clip-path="url(#e883526ab4)"><path fill="#efebeb" d="M 714.339844 473.121094 L 714.339844 483.550781 L 737.664062 483.550781 L 737.664062 473.121094 Z M 714.339844 473.121094 " fill-opacity="1" fill-rule="nonzero"/></g></g><g clip-path="url(#91af7c5765)"><g clip-path="url(#2a304cd7d0)"><path fill="#efebeb" d="M 721.105469 460.574219 L 721.105469 472.433594 L 731.136719 472.433594 L 731.136719 460.574219 Z M 721.105469 460.574219 " fill-opacity="1" fill-rule="nonzero"/></g></g><path fill="#5ce1e6" d="M 700.5625 716.941406 C 697.550781 717.65625 694.433594 718.4375 691.40625 718.082031 C 689.683594 717.867188 687.730469 717.433594 686.484375 716.113281 C 685.46875 715.03125 685.78125 712.820312 685.710938 711.359375 C 685.679688 710.746094 675.082031 709.085938 674.195312 708.914062 C 677.441406 723.523438 679.707031 738.25 681.460938 753.089844 C 682.859375 753.164062 683.847656 753.863281 684.386719 754.832031 C 684.976562 754.566406 685.542969 754.257812 686.101562 753.925781 C 687.277344 753.230469 688.382812 752.421875 689.414062 751.519531 C 693.75 747.765625 696.691406 742.667969 698.921875 737.445312 C 701.148438 732.207031 703.222656 726.113281 703.222656 720.351562 C 703.222656 719.734375 703.296875 719.375 703.449219 719.144531 C 701.976562 718.980469 701.011719 718.074219 700.5625 716.941406 Z M 700.5625 716.941406 " fill-opacity="1" fill-rule="nonzero"/><path fill="#5ce1e6" d="M 636.949219 715.691406 C 635.613281 713.644531 636.410156 709.847656 636.75 707.589844 C 637.121094 705.15625 637.765625 702.808594 638.628906 700.519531 C 639.277344 698.796875 639.335938 698.953125 637.742188 698.027344 C 635.847656 696.933594 633.578125 696.253906 631.371094 696.332031 C 629.726562 696.386719 628.261719 697.101562 626.785156 697.785156 C 609.554688 705.714844 593.878906 716.925781 576.378906 724.320312 C 575.511719 722.257812 577.671875 719.210938 578.476562 717.472656 C 581.511719 710.890625 584.855469 704.464844 586.839844 697.460938 C 588.878906 690.292969 590.203125 682.167969 588.09375 674.882812 C 586.246094 668.519531 582.3125 662.183594 576.347656 658.976562 C 570.445312 655.808594 563.582031 656.792969 559.300781 661.957031 C 556.460938 665.367188 554.015625 669.097656 551.703125 672.882812 C 544.730469 684.335938 538.835938 696.449219 532.972656 708.488281 C 530.378906 713.808594 527.542969 720.160156 527.679688 726.203125 C 527.785156 731.132812 528.035156 735.949219 529.101562 740.800781 C 531.496094 751.664062 537.75 762.335938 549.367188 764.761719 C 556.125 766.167969 563.613281 765.152344 570.304688 763.847656 C 577.675781 762.40625 584.839844 759.960938 591.628906 756.734375 C 605.4375 750.195312 618.167969 740.769531 628.761719 729.773438 C 631.695312 726.730469 634.476562 723.558594 637.03125 720.195312 C 637.351562 719.773438 638.628906 718.476562 638.625 718.015625 C 638.621094 717.515625 637.253906 716.191406 636.949219 715.691406 C 636.5625 715.09375 637.167969 716.050781 636.949219 715.691406 Z M 636.949219 715.691406 " fill-opacity="1" fill-rule="nonzero"/><g clip-path="url(#f9ecb04675)"><g clip-path="url(#0c31cfd211)"><path fill="#745e5f" d="M 552.09375 778.269531 L 552.09375 1022.445312 L 654.902344 1022.445312 L 654.902344 778.269531 Z M 552.09375 778.269531 " fill-opacity="1" fill-rule="nonzero"/></g></g><g clip-path="url(#521f6a0a12)"><g clip-path="url(#c3dd432a61)"><path fill="#514242" d="M 636.800781 1013.835938 L 636.800781 1037.898438 L 689.054688 1037.898438 L 689.054688 1013.835938 Z M 636.800781 1013.835938 " fill-opacity="1" fill-rule="nonzero"/></g></g><g clip-path="url(#9e8450c6e3)"><g clip-path="url(#04412bbdc7)"><path fill="#514242" d="M 559.222656 1014.550781 L 559.222656 1037.722656 L 611.015625 1037.722656 L 611.015625 1014.550781 Z M 559.222656 1014.550781 " fill-opacity="1" fill-rule="nonzero"/></g></g><g clip-path="url(#865f8d46ff)"><g clip-path="url(#6b59b27faa)"><path fill="#b6a6a6" d="M 580.222656 722.175781 L 580.222656 781.359375 L 636.589844 781.359375 L 636.589844 722.175781 Z M 580.222656 722.175781 " fill-opacity="1" fill-rule="nonzero"/></g></g><g clip-path="url(#5a485cfdc8)"><g clip-path="url(#553731dadf)"><path fill="#b6a6a6" d="M 584.871094 657.050781 L 584.871094 721.851562 L 633.925781 721.851562 L 633.925781 657.050781 Z M 584.871094 657.050781 " fill-opacity="1" fill-rule="nonzero"/></g></g><path fill="#c19696" d="M 723.109375 705.074219 C 722.285156 703.15625 721.390625 701.261719 720.394531 699.429688 C 719.21875 697.265625 717.839844 694.910156 715.851562 693.378906 C 715.589844 693.4375 712.496094 692.535156 712.496094 692.535156 C 712.496094 692.535156 712.390625 692.617188 712.34375 692.65625 C 708.832031 695.59375 685.703125 711.214844 685.703125 711.214844 C 685.703125 711.214844 684.113281 713.496094 683.25 713.320312 C 683.421875 716.34375 684.207031 718.300781 687.128906 719.589844 C 689.414062 720.585938 692.445312 721.105469 694.921875 720.617188 C 699.917969 719.660156 704.8125 718.824219 709.679688 717.664062 C 713.285156 716.6875 716.9375 715.621094 720.296875 713.960938 C 721.933594 713.144531 724.351562 711.925781 724.820312 709.949219 C 725.140625 708.601562 723.648438 706.308594 723.109375 705.074219 Z M 723.109375 705.074219 " fill-opacity="1" fill-rule="nonzero"/><path fill="#c19696" d="M 647.984375 681.066406 C 641.957031 684.636719 638.949219 693.726562 636.09375 700.023438 C 635.328125 702.578125 634.332031 706.132812 634.066406 708.433594 C 633.589844 712.558594 635.460938 718.035156 635.460938 718.035156 C 635.460938 718.035156 636.53125 720.699219 637.144531 722.175781 C 642.308594 725.128906 648.5625 723.457031 654.066406 722.101562 C 659.933594 720.660156 665.273438 717.695312 669.277344 713.128906 C 673.925781 707.851562 674.8125 701.523438 673.9375 694.753906 C 673.273438 689.617188 671.503906 684.292969 667.398438 680.882812 C 661.621094 676.460938 653.945312 677.539062 647.984375 681.066406 Z M 647.984375 681.066406 " fill-opacity="1" fill-rule="nonzero"/><path fill="#c19696" d="M 637.757812 603.871094 C 636.710938 600.15625 624.449219 604.078125 617.179688 601.488281 C 610.417969 599.0625 604.53125 595.277344 598.75 591.082031 C 597.167969 596.632812 595.667969 602.207031 595.492188 608.023438 C 592.792969 605.773438 591.363281 603.1875 587.59375 602.578125 C 584.871094 602.144531 580.964844 602.59375 579.1875 604.90625 C 574.945312 611.921875 580.578125 619.160156 585.3125 624.230469 C 587.519531 626.585938 590.011719 628.546875 591.398438 631.542969 C 592.035156 632.910156 595.839844 639.121094 595.839844 639.121094 C 595.839844 639.121094 596.441406 639.503906 596.449219 640.832031 C 596.457031 642.84375 596.464844 644.855469 596.472656 646.871094 C 596.480469 648.90625 598.300781 650.125 599.609375 651.621094 C 602.238281 654.597656 604.863281 657.589844 607.492188 660.574219 C 608.265625 661.449219 609.035156 662.328125 609.808594 663.207031 C 610.558594 664.0625 614.53125 661.871094 614.851562 660.921875 C 615.914062 657.816406 616.988281 654.703125 618.050781 651.597656 C 618.792969 649.445312 618.449219 647.125 618.445312 644.859375 C 618.433594 643.394531 618.425781 641.941406 618.414062 640.476562 C 618.414062 640.449219 625.832031 638.714844 626.65625 638.410156 C 632.269531 636.347656 636.617188 632.890625 637.683594 626.730469 C 638.882812 619.121094 638.714844 611.496094 637.757812 603.871094 C 637.757812 603.867188 637.773438 604.015625 637.757812 603.871094 Z M 637.757812 603.871094 " fill-opacity="1" fill-rule="nonzero"/><g clip-path="url(#00f8ae9cc3)"><g clip-path="url(#9d9d82322f)"><path fill="#514242" d="M 569.121094 575.457031 L 569.121094 639.046875 L 647.929688 639.046875 L 647.929688 575.457031 Z M 569.121094 575.457031 " fill-opacity="1" fill-rule="nonzero"/></g></g><g clip-path="url(#be552996b4)"><g clip-path="url(#6372c412a0)"><path fill="#efebeb" d="M 659.644531 635.84375 L 659.644531 714.964844 L 752.457031 714.964844 L 752.457031 635.84375 Z M 659.644531 635.84375 " fill-opacity="1" fill-rule="nonzero"/></g></g><g clip-path="url(#2a10e6a86a)"><g clip-path="url(#a889abd415)"><path fill="#efebeb" d="M 612.542969 647.578125 L 612.542969 671.765625 L 632.429688 671.765625 L 632.429688 647.578125 Z M 612.542969 647.578125 " fill-opacity="1" fill-rule="nonzero"/></g></g><g clip-path="url(#d4137026d2)"><g clip-path="url(#b3b36b44c7)"><path fill="#efebeb" d="M 589.773438 647.710938 L 589.773438 673.804688 L 612.472656 673.804688 L 612.472656 647.710938 Z M 589.773438 647.710938 " fill-opacity="1" fill-rule="nonzero"/></g></g><path fill="#0097b2" d="M 668.304688 710.328125 C 664.566406 715.199219 659.089844 718.308594 653.171875 719.707031 C 648.160156 720.894531 639.363281 722.503906 635.460938 718.035156 C 634.820312 718.910156 632.191406 721.332031 632.230469 722.3125 C 632.25 722.855469 632.265625 723.386719 632.277344 723.925781 C 632.363281 726.332031 632.4375 728.730469 632.515625 731.136719 C 632.765625 738.945312 633.019531 746.75 633.269531 754.558594 C 633.578125 764.203125 633.878906 773.84375 634.203125 783.492188 C 634.707031 798.640625 635.21875 813.792969 635.726562 828.949219 C 646.191406 826.738281 656.664062 824.542969 667.128906 822.34375 C 673.921875 820.921875 680.714844 819.496094 687.503906 818.070312 C 688.871094 817.785156 688.402344 817.539062 688.351562 815.871094 C 688.210938 811.625 688.050781 807.371094 687.859375 803.125 C 687.519531 795.414062 687.085938 787.722656 686.539062 780.035156 C 685.425781 764.445312 683.875 748.867188 681.480469 733.421875 C 680.910156 729.738281 680.296875 726.0625 679.617188 722.410156 C 679.414062 721.328125 678.273438 712.328125 677.503906 712.167969 C 674.429688 711.554688 671.367188 710.949219 668.304688 710.328125 Z M 668.304688 710.328125 " fill-opacity="1" fill-rule="nonzero"/><path fill="#0097b2" d="M 630.308594 663.238281 C 630.515625 669.683594 630.71875 676.125 630.925781 682.570312 C 631.0625 686.6875 631.1875 690.792969 631.320312 694.910156 C 631.359375 696.039062 631.390625 697.171875 631.425781 698.300781 C 631.433594 698.492188 631.441406 698.675781 631.441406 698.878906 C 631.433594 698.488281 635.703125 699.800781 636.09375 700.023438 C 644.605469 679.390625 660.914062 680.496094 660.914062 680.496094 L 662.113281 678.695312 C 662.113281 678.695312 663.753906 676.25 664.574219 675.023438 C 665.421875 673.746094 662.914062 670.792969 662.179688 669.585938 C 660.707031 667.160156 659.089844 664.828125 657.28125 662.640625 C 650.605469 654.542969 641.335938 649.371094 630.640625 650.433594 C 629.386719 650.550781 629.902344 651.765625 629.941406 652.851562 C 629.980469 653.972656 630.011719 655.101562 630.050781 656.222656 C 630.140625 658.5625 630.226562 660.898438 630.308594 663.238281 Z M 630.308594 663.238281 " fill-opacity="1" fill-rule="nonzero"/><path fill="#0097b2" d="M 582.582031 781.355469 C 583.214844 773.25 583.851562 765.148438 584.492188 757.035156 C 576.917969 759.992188 568.945312 761.933594 560.835938 762.546875 C 555.027344 762.984375 549.09375 762.964844 543.914062 759.972656 C 532.972656 753.640625 530.503906 739.054688 530.25 727.570312 C 529.988281 715.734375 536.375 704.757812 541.546875 694.503906 C 546.644531 684.394531 550.914062 672.28125 559.230469 664.347656 C 562.355469 661.382812 566.390625 659.121094 570.839844 659.761719 C 576.457031 660.554688 580.710938 665.074219 583.285156 669.84375 C 590.839844 683.820312 583.921875 699.867188 577.769531 712.964844 C 576.707031 715.207031 575.648438 717.457031 574.648438 719.742188 C 574.152344 720.875 573.566406 721.914062 573.636719 723.183594 C 573.695312 724.320312 574.019531 725.269531 574.46875 726.292969 C 575 727.5 574.984375 727.570312 576.15625 727.140625 C 578.578125 726.242188 580.910156 725.0625 583.210938 723.917969 C 584.046875 723.503906 587.242188 722.515625 587.316406 721.5625 C 587.371094 720.9375 587.414062 720.320312 587.46875 719.695312 C 587.660156 717.160156 587.859375 714.621094 588.058594 712.089844 C 589.78125 689.988281 591.550781 667.894531 593.210938 645.789062 C 580.734375 647.523438 568.4375 652.441406 559.5625 661.621094 C 552.410156 669.003906 547.242188 678.363281 542.535156 687.410156 C 536.566406 698.878906 530.847656 710.75 527.003906 723.117188 C 523.484375 734.429688 521.363281 746.164062 520.054688 757.929688 C 518.472656 772.109375 518.070312 786.425781 518.355469 800.691406 C 518.433594 804.507812 518.558594 808.332031 518.734375 812.148438 C 518.769531 812.996094 518.773438 822.191406 518.894531 822.222656 C 520.375 822.550781 521.851562 822.878906 523.335938 823.210938 C 536.921875 826.238281 550.511719 829.265625 564.101562 832.296875 C 568.835938 833.359375 573.574219 834.40625 578.300781 835.445312 C 579.734375 817.410156 581.152344 799.382812 582.582031 781.355469 Z M 582.582031 781.355469 " fill-opacity="1" fill-rule="nonzero"/></svg>